<svg width="47" height="48" viewBox="0 0 47 48" fill="none" xmlns="http://www.w3.org/2000/svg">
<g clip-path="url(#clip0_111_2254)">
<path d="M46.9776 24.4489C46.9776 22.4823 46.8177 21.0473 46.4716 19.5591H23.9682V28.4351H37.1772C36.911 30.6409 35.4729 33.9627 32.2771 36.1949L32.2323 36.4921L39.3474 41.9925L39.8404 42.0416C44.3676 37.8692 46.9776 31.7304 46.9776 24.4489Z" fill="#4285F4"/>
<path d="M23.9682 47.8351C30.4395 47.8351 35.8722 45.709 39.8404 42.0418L32.2771 36.1951C30.2531 37.6036 27.5367 38.5869 23.9682 38.5869C17.63 38.5869 12.2505 34.4147 10.3328 28.6479L10.0518 28.6718L2.6533 34.3854L2.55654 34.6538C6.49793 42.4668 14.5939 47.8351 23.9682 47.8351Z" fill="#34A853"/>
<path d="M10.3328 28.6481C9.82686 27.1599 9.53402 25.5653 9.53402 23.9177C9.53402 22.2699 9.82686 20.6755 10.3062 19.1873L10.2928 18.8704L2.80164 13.0649L2.55654 13.1813C0.932106 16.4235 0 20.0643 0 23.9177C0 27.7711 0.932106 31.4117 2.55654 34.6539L10.3328 28.6481Z" fill="#FBBC05"/>
<path d="M23.9682 9.24806C28.4688 9.24806 31.5047 11.188 33.2358 12.8092L40.0001 6.21857C35.8458 2.36519 30.4395 0 23.9682 0C14.5939 0 6.49793 5.36812 2.55654 13.1811L10.3062 19.1872C12.2505 13.4204 17.63 9.24806 23.9682 9.24806Z" fill="#EB4335"/>
</g>
<defs>
<clipPath id="clip0_111_2254">
<rect width="47" height="48" fill="white"/>
</clipPath>
</defs>
</svg>
