<svg width="138" height="22" viewBox="0 0 138 22" fill="none" xmlns="http://www.w3.org/2000/svg">
<path d="M12 0L14.6942 8.2918H23.4127L16.3593 13.4164L19.0534 21.7082L12 16.5836L4.94658 21.7082L7.64074 13.4164L0.587322 8.2918H9.30583L12 0Z" fill="url(#paint0_linear_366_616)"/>
<path d="M40.5 0L43.3064 8.2918H52.3882L45.0409 13.4164L47.8473 21.7082L40.5 16.5836L33.1527 21.7082L35.9591 13.4164L28.6118 8.2918H37.6936L40.5 0Z" fill="url(#paint1_linear_366_616)"/>
<path d="M69 0L71.6942 8.2918H80.4127L73.3593 13.4164L76.0534 21.7082L69 16.5836L61.9466 21.7082L64.6407 13.4164L57.5873 8.2918H66.3058L69 0Z" fill="url(#paint2_linear_366_616)"/>
<path d="M98 0L100.919 8.2918H110.364L102.723 13.4164L105.641 21.7082L98 16.5836L90.3588 21.7082L93.2775 13.4164L85.6363 8.2918H95.0813L98 0Z" fill="url(#paint3_linear_366_616)"/>
<path d="M126.5 0L129.082 8.2918H137.437L130.678 13.4164L133.26 21.7082L126.5 16.5836L119.74 21.7082L122.322 13.4164L115.563 8.2918H123.918L126.5 0Z" fill="url(#paint4_linear_366_616)"/>
<defs>
<linearGradient id="paint0_linear_366_616" x1="0.769679" y1="2.93333" x2="24.8563" y2="4.34527" gradientUnits="userSpaceOnUse">
<stop stop-color="#FFDA55"/>
<stop offset="1" stop-color="#FFAA2C"/>
</linearGradient>
<linearGradient id="paint1_linear_366_616" x1="28.8017" y1="2.93333" x2="53.8846" y2="4.46494" gradientUnits="userSpaceOnUse">
<stop stop-color="#FFDA55"/>
<stop offset="1" stop-color="#FFAA2C"/>
</linearGradient>
<linearGradient id="paint2_linear_366_616" x1="57.7697" y1="2.93333" x2="81.8563" y2="4.34527" gradientUnits="userSpaceOnUse">
<stop stop-color="#FFDA55"/>
<stop offset="1" stop-color="#FFAA2C"/>
</linearGradient>
<linearGradient id="paint3_linear_366_616" x1="85.8338" y1="2.93333" x2="111.912" y2="4.58941" gradientUnits="userSpaceOnUse">
<stop stop-color="#FFDA55"/>
<stop offset="1" stop-color="#FFAA2C"/>
</linearGradient>
<linearGradient id="paint4_linear_366_616" x1="115.738" y1="2.93333" x2="138.827" y2="4.23042" gradientUnits="userSpaceOnUse">
<stop stop-color="#FFDA55"/>
<stop offset="1" stop-color="#FFAA2C"/>
</linearGradient>
</defs>
</svg>
