<svg width="41" height="40" viewBox="0 0 41 40" fill="none" xmlns="http://www.w3.org/2000/svg">
<g clip-path="url(#clip0_45_113)">
<rect x="0.5" width="40" height="40" rx="13" fill="#00406E"/>
<path d="M27.8736 9.00121C28.0673 9.02358 28.2461 9.04593 28.4062 9.06702V12.125H26.8844C25.425 12.125 24.304 12.5867 23.5666 13.4394C22.8526 14.265 22.625 15.3122 22.625 16.2484V20V21H23.625H28.0068L27.4268 24.7812H23.625H22.625V25.7812V38.8823C21.9197 38.9609 21.2104 39.0002 20.5003 39H20.4997C19.7896 39.0002 19.0803 38.9609 18.375 38.8823V25.7812V24.7812H17.375H13.2969V21H17.375H18.375V20V15.5938C18.375 13.2871 19.058 11.6197 20.1464 10.5302C21.2359 9.4397 22.8471 8.8125 24.9292 8.8125C25.9701 8.8125 27.0476 8.90583 27.8736 9.00121Z" fill="white" stroke="white" stroke-width="2"/>
</g>
<defs>
<clipPath id="clip0_45_113">
<rect x="0.5" width="40" height="40" rx="13" fill="white"/>
</clipPath>
</defs>
</svg>
