<svg width="57" height="58" viewBox="0 0 57 58" fill="none" xmlns="http://www.w3.org/2000/svg">
<path d="M29.4661 29.0002C30.8277 29.0002 31.9937 28.5268 32.9642 27.58C33.933 26.6349 34.4174 25.4981 34.4174 24.1697C34.4174 22.8413 33.933 21.7037 32.9642 20.7569C31.9937 19.8118 30.8277 19.3392 29.4661 19.3392C28.1045 19.3392 26.9393 19.8118 25.9705 20.7569C25 21.7037 24.5148 22.8413 24.5148 24.1697C24.5148 25.4981 25 26.6349 25.9705 27.58C26.9393 28.5268 28.1045 29.0002 29.4661 29.0002ZM29.4661 46.7523C34.4999 42.2438 38.234 38.1476 40.6683 34.4635C43.1027 30.781 44.3199 27.5108 44.3199 24.6527C44.3199 20.265 42.8857 16.6719 40.0173 13.8735C37.1505 11.0766 33.6334 9.67816 29.4661 9.67816C25.2988 9.67816 21.7809 11.0766 18.9125 13.8735C16.0457 16.6719 14.6123 20.265 14.6123 24.6527C14.6123 27.5108 15.8295 30.781 18.2638 34.4635C20.6982 38.1476 24.4323 42.2438 29.4661 46.7523ZM29.4661 53.1527C22.8231 47.6379 17.862 42.5152 14.5826 37.7845C11.3015 33.0554 9.66101 28.6782 9.66101 24.6527C9.66101 18.6146 11.6522 13.8042 15.6347 10.2216C19.6155 6.63897 24.226 4.84766 29.4661 4.84766C34.7062 4.84766 39.3166 6.63897 43.2975 10.2216C47.2799 13.8042 49.2712 18.6146 49.2712 24.6527C49.2712 28.6782 47.6315 33.0554 44.3521 37.7845C41.0711 42.5152 36.1091 47.6379 29.4661 53.1527Z" fill="url(#paint0_linear_45_102)"/>
<defs>
<linearGradient id="paint0_linear_45_102" x1="10.9313" y1="10.7516" x2="50.729" y2="12.6646" gradientUnits="userSpaceOnUse">
<stop stop-color="#FFDA55"/>
<stop offset="1" stop-color="#FFAA2C"/>
</linearGradient>
</defs>
</svg>
