<svg width="57" height="57" viewBox="0 0 57 57" fill="none" xmlns="http://www.w3.org/2000/svg">
<path d="M24.4293 21.8984L24.4292 21.8984L24.4266 21.9028L21.0537 27.6264L20.9231 27.8481L21.0276 28.0833C22.5967 31.6149 25.1872 34.477 28.3996 36.2073L28.6786 36.3576L28.9336 36.1694L34.0336 32.4063L34.0361 32.4044C34.4121 32.1233 34.8417 31.9565 35.284 31.9142C35.7262 31.872 36.1725 31.9551 36.5822 32.1587L36.5822 32.1588L36.591 32.163L46.1138 36.6666C46.1149 36.6671 46.1159 36.6676 46.117 36.6681C46.6569 36.9342 47.1163 37.3888 47.4205 37.9757C47.7249 38.5629 47.8549 39.2467 47.7878 39.9269C47.4401 42.8612 46.1449 45.5463 44.1547 47.4875C42.1648 49.4284 39.6168 50.4936 36.9864 50.5C21.1777 50.4993 8.229 36.2167 8.22876 18.5517C8.23475 15.5901 9.2106 12.7385 10.965 10.5263C12.7173 8.31661 15.1236 6.89832 17.7309 6.518C18.3101 6.44802 18.8979 6.5829 19.4114 6.91026C19.9269 7.2389 20.3437 7.74697 20.5925 8.36859L24.6754 18.9341C24.6755 18.9342 24.6755 18.9342 24.6755 18.9342C24.8597 19.4112 24.9342 19.9338 24.8907 20.4537C24.8473 20.9736 24.6875 21.4702 24.4293 21.8984ZM18.5374 9.42503L18.394 9.05415L18.0004 9.11027C15.9046 9.40906 13.9907 10.5432 12.6112 12.2835C11.2326 14.0227 10.4784 16.2514 10.4797 18.5515L10.4797 18.5516C10.4852 26.3162 13.2684 33.7702 18.2319 39.2748C23.1969 44.7811 29.941 47.8885 36.9872 47.8946H36.9873C39.1017 47.8961 41.135 47.0425 42.7082 45.5087C44.2801 43.9762 45.2864 41.8697 45.5509 39.5878L45.5921 39.2316L45.2679 39.0783L35.7385 34.5715L35.4677 34.4434L35.2271 34.6217L30.1494 38.3834C30.1491 38.3836 30.1488 38.3838 30.1485 38.384C29.7538 38.6732 29.3032 38.8412 28.8407 38.8771C28.3785 38.9131 27.9137 38.8165 27.4899 38.5931C23.8104 36.6187 20.8233 33.327 19.0165 29.2342C18.805 28.7485 18.7091 28.2078 18.7402 27.6652C18.7714 27.1226 18.9283 26.6011 19.1924 26.1514C19.1926 26.1511 19.1927 26.1508 19.1929 26.1506L22.5851 20.4286L22.7089 20.2198L22.6214 19.9934L18.5374 9.42503Z" fill="url(#paint0_linear_45_104)" stroke="url(#paint1_linear_45_104)"/>
<defs>
<linearGradient id="paint0_linear_45_104" x1="9.03004" y1="11.5" x2="49.7788" y2="13.6538" gradientUnits="userSpaceOnUse">
<stop stop-color="#FFD749"/>
<stop offset="1" stop-color="#FFA620"/>
</linearGradient>
<linearGradient id="paint1_linear_45_104" x1="9.03004" y1="11.5" x2="49.7788" y2="13.6538" gradientUnits="userSpaceOnUse">
<stop stop-color="#FFD749"/>
<stop offset="1" stop-color="#FFA620"/>
</linearGradient>
</defs>
</svg>
