<svg width="872" height="112" viewBox="0 0 872 112" fill="none" xmlns="http://www.w3.org/2000/svg">
<rect width="873" height="112" transform="translate(-1)" fill="url(#paint0_linear_120_1423)" fill-opacity="0.6"/>
<g filter="url(#filter0_dd_120_1423)">
<path d="M122.551 28.8182V87H113.176L85.7614 47.3693H85.2784V87H74.7386V28.8182H84.1705L111.557 68.4773H112.068V28.8182H122.551ZM140.436 87V28.8182H178.276V37.6534H150.975V53.4489H176.316V62.2841H150.975V78.1648H178.504V87H140.436ZM207.674 87L191.253 28.8182H202.588L213.071 71.5739H213.611L224.804 28.8182H235.117L246.338 71.6023H246.85L257.333 28.8182H268.668L252.247 87H241.85L230.202 46.1761H229.747L218.071 87H207.674ZM294.507 28.8182L293.569 69.8977H284.422L283.512 28.8182H294.507ZM288.995 87.625C287.272 87.625 285.795 87.0189 284.564 85.8068C283.352 84.5947 282.745 83.1174 282.745 81.375C282.745 79.6705 283.352 78.2121 284.564 77C285.795 75.7879 287.272 75.1818 288.995 75.1818C290.681 75.1818 292.139 75.7879 293.37 77C294.62 78.2121 295.245 79.6705 295.245 81.375C295.245 82.5303 294.952 83.5814 294.365 84.5284C293.797 85.4754 293.039 86.233 292.092 86.8011C291.164 87.3504 290.132 87.625 288.995 87.625Z" fill="#323232"/>
</g>
<g filter="url(#filter1_dd_120_1423)">
<path d="M389.551 28.8182V87H380.176L352.761 47.3693H352.278V87H341.739V28.8182H351.17L378.557 68.4773H379.068V28.8182H389.551ZM407.436 87V28.8182H445.276V37.6534H417.975V53.4489H443.316V62.2841H417.975V78.1648H445.504V87H407.436ZM474.674 87L458.253 28.8182H469.588L480.071 71.5739H480.611L491.804 28.8182H502.117L513.338 71.6023H513.85L524.333 28.8182H535.668L519.247 87H508.85L497.202 46.1761H496.747L485.071 87H474.674ZM561.507 28.8182L560.569 69.8977H551.422L550.512 28.8182H561.507ZM555.995 87.625C554.272 87.625 552.795 87.0189 551.564 85.8068C550.352 84.5947 549.745 83.1174 549.745 81.375C549.745 79.6705 550.352 78.2121 551.564 77C552.795 75.7879 554.272 75.1818 555.995 75.1818C557.681 75.1818 559.139 75.7879 560.37 77C561.62 78.2121 562.245 79.6705 562.245 81.375C562.245 82.5303 561.952 83.5814 561.365 84.5284C560.797 85.4754 560.039 86.233 559.092 86.8011C558.164 87.3504 557.132 87.625 555.995 87.625Z" fill="#767676"/>
</g>
<g filter="url(#filter2_dd_120_1423)">
<path d="M656.551 28.8182V87H647.176L619.761 47.3693H619.278V87H608.739V28.8182H618.17L645.557 68.4773H646.068V28.8182H656.551ZM674.436 87V28.8182H712.276V37.6534H684.975V53.4489H710.316V62.2841H684.975V78.1648H712.504V87H674.436ZM741.674 87L725.253 28.8182H736.588L747.071 71.5739H747.611L758.804 28.8182H769.117L780.338 71.6023H780.85L791.333 28.8182H802.668L786.247 87H775.85L764.202 46.1761H763.747L752.071 87H741.674ZM828.507 28.8182L827.569 69.8977H818.422L817.512 28.8182H828.507ZM822.995 87.625C821.272 87.625 819.795 87.0189 818.564 85.8068C817.352 84.5947 816.745 83.1174 816.745 81.375C816.745 79.6705 817.352 78.2121 818.564 77C819.795 75.7879 821.272 75.1818 822.995 75.1818C824.681 75.1818 826.139 75.7879 827.37 77C828.62 78.2121 829.245 79.6705 829.245 81.375C829.245 82.5303 828.952 83.5814 828.365 84.5284C827.797 85.4754 827.039 86.233 826.092 86.8011C825.164 87.3504 824.132 87.625 822.995 87.625Z" fill="white"/>
</g>
<defs>
<filter id="filter0_dd_120_1423" x="74.7386" y="28.8181" width="224.507" height="62.8069" filterUnits="userSpaceOnUse" color-interpolation-filters="sRGB">
<feFlood flood-opacity="0" result="BackgroundImageFix"/>
<feColorMatrix in="SourceAlpha" type="matrix" values="0 0 0 0 0 0 0 0 0 0 0 0 0 0 0 0 0 0 127 0" result="hardAlpha"/>
<feOffset dx="2" dy="2"/>
<feGaussianBlur stdDeviation="1"/>
<feComposite in2="hardAlpha" operator="out"/>
<feColorMatrix type="matrix" values="0 0 0 0 0 0 0 0 0 0 0 0 0 0 0 0 0 0 0.25 0"/>
<feBlend mode="normal" in2="BackgroundImageFix" result="effect1_dropShadow_120_1423"/>
<feColorMatrix in="SourceAlpha" type="matrix" values="0 0 0 0 0 0 0 0 0 0 0 0 0 0 0 0 0 0 127 0" result="hardAlpha"/>
<feOffset dx="1" dy="1"/>
<feGaussianBlur stdDeviation="0.5"/>
<feComposite in2="hardAlpha" operator="out"/>
<feColorMatrix type="matrix" values="0 0 0 0 0 0 0 0 0 0 0 0 0 0 0 0 0 0 0.5 0"/>
<feBlend mode="normal" in2="effect1_dropShadow_120_1423" result="effect2_dropShadow_120_1423"/>
<feBlend mode="normal" in="SourceGraphic" in2="effect2_dropShadow_120_1423" result="shape"/>
</filter>
<filter id="filter1_dd_120_1423" x="341.739" y="28.8181" width="224.507" height="62.8069" filterUnits="userSpaceOnUse" color-interpolation-filters="sRGB">
<feFlood flood-opacity="0" result="BackgroundImageFix"/>
<feColorMatrix in="SourceAlpha" type="matrix" values="0 0 0 0 0 0 0 0 0 0 0 0 0 0 0 0 0 0 127 0" result="hardAlpha"/>
<feOffset dx="2" dy="2"/>
<feGaussianBlur stdDeviation="1"/>
<feComposite in2="hardAlpha" operator="out"/>
<feColorMatrix type="matrix" values="0 0 0 0 0 0 0 0 0 0 0 0 0 0 0 0 0 0 0.25 0"/>
<feBlend mode="normal" in2="BackgroundImageFix" result="effect1_dropShadow_120_1423"/>
<feColorMatrix in="SourceAlpha" type="matrix" values="0 0 0 0 0 0 0 0 0 0 0 0 0 0 0 0 0 0 127 0" result="hardAlpha"/>
<feOffset dx="1" dy="1"/>
<feGaussianBlur stdDeviation="0.5"/>
<feComposite in2="hardAlpha" operator="out"/>
<feColorMatrix type="matrix" values="0 0 0 0 0 0 0 0 0 0 0 0 0 0 0 0 0 0 0.5 0"/>
<feBlend mode="normal" in2="effect1_dropShadow_120_1423" result="effect2_dropShadow_120_1423"/>
<feBlend mode="normal" in="SourceGraphic" in2="effect2_dropShadow_120_1423" result="shape"/>
</filter>
<filter id="filter2_dd_120_1423" x="608.739" y="28.8181" width="224.507" height="62.8069" filterUnits="userSpaceOnUse" color-interpolation-filters="sRGB">
<feFlood flood-opacity="0" result="BackgroundImageFix"/>
<feColorMatrix in="SourceAlpha" type="matrix" values="0 0 0 0 0 0 0 0 0 0 0 0 0 0 0 0 0 0 127 0" result="hardAlpha"/>
<feOffset dx="2" dy="2"/>
<feGaussianBlur stdDeviation="1"/>
<feComposite in2="hardAlpha" operator="out"/>
<feColorMatrix type="matrix" values="0 0 0 0 0 0 0 0 0 0 0 0 0 0 0 0 0 0 0.25 0"/>
<feBlend mode="normal" in2="BackgroundImageFix" result="effect1_dropShadow_120_1423"/>
<feColorMatrix in="SourceAlpha" type="matrix" values="0 0 0 0 0 0 0 0 0 0 0 0 0 0 0 0 0 0 127 0" result="hardAlpha"/>
<feOffset dx="1" dy="1"/>
<feGaussianBlur stdDeviation="0.5"/>
<feComposite in2="hardAlpha" operator="out"/>
<feColorMatrix type="matrix" values="0 0 0 0 0 0 0 0 0 0 0 0 0 0 0 0 0 0 0.5 0"/>
<feBlend mode="normal" in2="effect1_dropShadow_120_1423" result="effect2_dropShadow_120_1423"/>
<feBlend mode="normal" in="SourceGraphic" in2="effect2_dropShadow_120_1423" result="shape"/>
</filter>
<linearGradient id="paint0_linear_120_1423" x1="27.9971" y1="13.6889" x2="755.314" y2="346.011" gradientUnits="userSpaceOnUse">
<stop stop-color="#FFDD66"/>
<stop offset="1" stop-color="#FFB74A"/>
</linearGradient>
</defs>
</svg>
