<svg width="876" height="120" viewBox="0 0 876 120" fill="none" xmlns="http://www.w3.org/2000/svg">
<g filter="url(#filter0_d_132_1551)">
<rect width="873" height="112" transform="translate(-3 2)" fill="url(#paint0_linear_132_1551)" fill-opacity="0.6"/>
<g filter="url(#filter1_dd_132_1551)">
<path d="M120.551 30.8182V89H111.176L83.7614 49.3693H83.2784V89H72.7386V30.8182H82.1705L109.557 70.4773H110.068V30.8182H120.551ZM138.436 89V30.8182H176.276V39.6534H148.975V55.4489H174.316V64.2841H148.975V80.1648H176.504V89H138.436ZM205.674 89L189.253 30.8182H200.588L211.071 73.5739H211.611L222.804 30.8182H233.117L244.338 73.6023H244.85L255.333 30.8182H266.668L250.247 89H239.85L228.202 48.1761H227.747L216.071 89H205.674ZM292.507 30.8182L291.569 71.8977H282.422L281.512 30.8182H292.507ZM286.995 89.625C285.272 89.625 283.795 89.0189 282.564 87.8068C281.352 86.5947 280.745 85.1174 280.745 83.375C280.745 81.6705 281.352 80.2121 282.564 79C283.795 77.7879 285.272 77.1818 286.995 77.1818C288.681 77.1818 290.139 77.7879 291.37 79C292.62 80.2121 293.245 81.6705 293.245 83.375C293.245 84.5303 292.952 85.5814 292.365 86.5284C291.797 87.4754 291.039 88.233 290.092 88.8011C289.164 89.3504 288.132 89.625 286.995 89.625Z" fill="#323232"/>
</g>
<g filter="url(#filter2_dd_132_1551)">
<path d="M387.551 30.8182V89H378.176L350.761 49.3693H350.278V89H339.739V30.8182H349.17L376.557 70.4773H377.068V30.8182H387.551ZM405.436 89V30.8182H443.276V39.6534H415.975V55.4489H441.316V64.2841H415.975V80.1648H443.504V89H405.436ZM472.674 89L456.253 30.8182H467.588L478.071 73.5739H478.611L489.804 30.8182H500.117L511.338 73.6023H511.85L522.333 30.8182H533.668L517.247 89H506.85L495.202 48.1761H494.747L483.071 89H472.674ZM559.507 30.8182L558.569 71.8977H549.422L548.512 30.8182H559.507ZM553.995 89.625C552.272 89.625 550.795 89.0189 549.564 87.8068C548.352 86.5947 547.745 85.1174 547.745 83.375C547.745 81.6705 548.352 80.2121 549.564 79C550.795 77.7879 552.272 77.1818 553.995 77.1818C555.681 77.1818 557.139 77.7879 558.37 79C559.62 80.2121 560.245 81.6705 560.245 83.375C560.245 84.5303 559.952 85.5814 559.365 86.5284C558.797 87.4754 558.039 88.233 557.092 88.8011C556.164 89.3504 555.132 89.625 553.995 89.625Z" fill="#767676"/>
</g>
<g filter="url(#filter3_dd_132_1551)">
<path d="M654.551 30.8182V89H645.176L617.761 49.3693H617.278V89H606.739V30.8182H616.17L643.557 70.4773H644.068V30.8182H654.551ZM672.436 89V30.8182H710.276V39.6534H682.975V55.4489H708.316V64.2841H682.975V80.1648H710.504V89H672.436ZM739.674 89L723.253 30.8182H734.588L745.071 73.5739H745.611L756.804 30.8182H767.117L778.338 73.6023H778.85L789.333 30.8182H800.668L784.247 89H773.85L762.202 48.1761H761.747L750.071 89H739.674ZM826.507 30.8182L825.569 71.8977H816.422L815.512 30.8182H826.507ZM820.995 89.625C819.272 89.625 817.795 89.0189 816.564 87.8068C815.352 86.5947 814.745 85.1174 814.745 83.375C814.745 81.6705 815.352 80.2121 816.564 79C817.795 77.7879 819.272 77.1818 820.995 77.1818C822.681 77.1818 824.139 77.7879 825.37 79C826.62 80.2121 827.245 81.6705 827.245 83.375C827.245 84.5303 826.952 85.5814 826.365 86.5284C825.797 87.4754 825.039 88.233 824.092 88.8011C823.164 89.3504 822.132 89.625 820.995 89.625Z" fill="white"/>
</g>
</g>
<defs>
<filter id="filter0_d_132_1551" x="-5" y="0" width="881" height="120" filterUnits="userSpaceOnUse" color-interpolation-filters="sRGB">
<feFlood flood-opacity="0" result="BackgroundImageFix"/>
<feColorMatrix in="SourceAlpha" type="matrix" values="0 0 0 0 0 0 0 0 0 0 0 0 0 0 0 0 0 0 127 0" result="hardAlpha"/>
<feOffset dx="2" dy="2"/>
<feGaussianBlur stdDeviation="2"/>
<feComposite in2="hardAlpha" operator="out"/>
<feColorMatrix type="matrix" values="0 0 0 0 0 0 0 0 0 0 0 0 0 0 0 0 0 0 0.25 0"/>
<feBlend mode="normal" in2="BackgroundImageFix" result="effect1_dropShadow_132_1551"/>
<feBlend mode="normal" in="SourceGraphic" in2="effect1_dropShadow_132_1551" result="shape"/>
</filter>
<filter id="filter1_dd_132_1551" x="72.7386" y="30.8181" width="224.507" height="62.8069" filterUnits="userSpaceOnUse" color-interpolation-filters="sRGB">
<feFlood flood-opacity="0" result="BackgroundImageFix"/>
<feColorMatrix in="SourceAlpha" type="matrix" values="0 0 0 0 0 0 0 0 0 0 0 0 0 0 0 0 0 0 127 0" result="hardAlpha"/>
<feOffset dx="2" dy="2"/>
<feGaussianBlur stdDeviation="1"/>
<feComposite in2="hardAlpha" operator="out"/>
<feColorMatrix type="matrix" values="0 0 0 0 0 0 0 0 0 0 0 0 0 0 0 0 0 0 0.25 0"/>
<feBlend mode="normal" in2="BackgroundImageFix" result="effect1_dropShadow_132_1551"/>
<feColorMatrix in="SourceAlpha" type="matrix" values="0 0 0 0 0 0 0 0 0 0 0 0 0 0 0 0 0 0 127 0" result="hardAlpha"/>
<feOffset dx="1" dy="1"/>
<feGaussianBlur stdDeviation="0.5"/>
<feComposite in2="hardAlpha" operator="out"/>
<feColorMatrix type="matrix" values="0 0 0 0 0 0 0 0 0 0 0 0 0 0 0 0 0 0 0.5 0"/>
<feBlend mode="normal" in2="effect1_dropShadow_132_1551" result="effect2_dropShadow_132_1551"/>
<feBlend mode="normal" in="SourceGraphic" in2="effect2_dropShadow_132_1551" result="shape"/>
</filter>
<filter id="filter2_dd_132_1551" x="339.739" y="30.8181" width="224.507" height="62.8069" filterUnits="userSpaceOnUse" color-interpolation-filters="sRGB">
<feFlood flood-opacity="0" result="BackgroundImageFix"/>
<feColorMatrix in="SourceAlpha" type="matrix" values="0 0 0 0 0 0 0 0 0 0 0 0 0 0 0 0 0 0 127 0" result="hardAlpha"/>
<feOffset dx="2" dy="2"/>
<feGaussianBlur stdDeviation="1"/>
<feComposite in2="hardAlpha" operator="out"/>
<feColorMatrix type="matrix" values="0 0 0 0 0 0 0 0 0 0 0 0 0 0 0 0 0 0 0.25 0"/>
<feBlend mode="normal" in2="BackgroundImageFix" result="effect1_dropShadow_132_1551"/>
<feColorMatrix in="SourceAlpha" type="matrix" values="0 0 0 0 0 0 0 0 0 0 0 0 0 0 0 0 0 0 127 0" result="hardAlpha"/>
<feOffset dx="1" dy="1"/>
<feGaussianBlur stdDeviation="0.5"/>
<feComposite in2="hardAlpha" operator="out"/>
<feColorMatrix type="matrix" values="0 0 0 0 0 0 0 0 0 0 0 0 0 0 0 0 0 0 0.5 0"/>
<feBlend mode="normal" in2="effect1_dropShadow_132_1551" result="effect2_dropShadow_132_1551"/>
<feBlend mode="normal" in="SourceGraphic" in2="effect2_dropShadow_132_1551" result="shape"/>
</filter>
<filter id="filter3_dd_132_1551" x="606.739" y="30.8181" width="224.507" height="62.8069" filterUnits="userSpaceOnUse" color-interpolation-filters="sRGB">
<feFlood flood-opacity="0" result="BackgroundImageFix"/>
<feColorMatrix in="SourceAlpha" type="matrix" values="0 0 0 0 0 0 0 0 0 0 0 0 0 0 0 0 0 0 127 0" result="hardAlpha"/>
<feOffset dx="2" dy="2"/>
<feGaussianBlur stdDeviation="1"/>
<feComposite in2="hardAlpha" operator="out"/>
<feColorMatrix type="matrix" values="0 0 0 0 0 0 0 0 0 0 0 0 0 0 0 0 0 0 0.25 0"/>
<feBlend mode="normal" in2="BackgroundImageFix" result="effect1_dropShadow_132_1551"/>
<feColorMatrix in="SourceAlpha" type="matrix" values="0 0 0 0 0 0 0 0 0 0 0 0 0 0 0 0 0 0 127 0" result="hardAlpha"/>
<feOffset dx="1" dy="1"/>
<feGaussianBlur stdDeviation="0.5"/>
<feComposite in2="hardAlpha" operator="out"/>
<feColorMatrix type="matrix" values="0 0 0 0 0 0 0 0 0 0 0 0 0 0 0 0 0 0 0.5 0"/>
<feBlend mode="normal" in2="effect1_dropShadow_132_1551" result="effect2_dropShadow_132_1551"/>
<feBlend mode="normal" in="SourceGraphic" in2="effect2_dropShadow_132_1551" result="shape"/>
</filter>
<linearGradient id="paint0_linear_132_1551" x1="27.9971" y1="13.6889" x2="755.314" y2="346.011" gradientUnits="userSpaceOnUse">
<stop stop-color="#FFDD66"/>
<stop offset="1" stop-color="#FFB74A"/>
</linearGradient>
</defs>
</svg>
