<svg width="258" height="258" viewBox="0 0 258 258" fill="none" xmlns="http://www.w3.org/2000/svg">
<path fill-rule="evenodd" clip-rule="evenodd" d="M129 258C200.245 258 258 200.245 258 129C258 57.7553 200.245 0 129 0C57.7553 0 0 57.7553 0 129C0 200.245 57.7553 258 129 258ZM129.498 226.124C182.863 226.124 226.124 182.863 226.124 129.498C226.124 76.1333 182.863 32.8726 129.498 32.8726C76.1333 32.8726 32.8726 76.1333 32.8726 129.498C32.8726 182.863 76.1333 226.124 129.498 226.124Z" fill="white" fill-opacity="0.5"/>
<path d="M180 129L103.5 180.962V77.0385L180 129Z" fill="white" fill-opacity="0.5"/>
</svg>
