<svg width="32" height="32" viewBox="0 0 32 32" fill="none" xmlns="http://www.w3.org/2000/svg">
<g filter="url(#filter0_d_301_289)">
<path d="M22 28.4997C11.8 28.4997 3.5 20.1997 3.5 9.9997C3.50051 8.17547 4.16587 6.41396 5.37153 5.04495C6.57718 3.67593 8.24047 2.79327 10.05 2.5622C10.5876 2.49497 11.1325 2.60509 11.6017 2.87584C12.071 3.14658 12.4391 3.56314 12.65 4.0622L15.1625 9.9122C15.3284 10.2915 15.397 10.7063 15.3621 11.1188C15.3272 11.5314 15.1898 11.9287 14.9625 12.2747L13.0375 15.1997C13.8903 16.8113 15.2106 18.1272 16.825 18.9747L19.7125 17.0497C20.0598 16.8203 20.4586 16.6808 20.8732 16.6438C21.2877 16.6067 21.705 16.6731 22.0875 16.8372L27.9375 19.3497C28.4366 19.5606 28.8531 19.9287 29.1239 20.398C29.3946 20.8672 29.5047 21.4121 29.4375 21.9497C29.2064 23.7592 28.3238 25.4225 26.9548 26.6282C25.5857 27.8338 23.8242 28.4992 22 28.4997ZM10.05 5.5997C9.04448 5.81687 8.14372 6.372 7.49777 7.17262C6.85182 7.97323 6.49968 8.97099 6.5 9.9997C6.50331 14.1095 8.1374 18.0501 11.0435 20.9562C13.9496 23.8623 17.8902 25.4964 22 25.4997C23.0287 25.5 24.0265 25.1479 24.8271 24.5019C25.6277 23.856 26.1828 22.9552 26.4 21.9497L21.15 19.6997L18.25 21.6372C17.8893 21.8758 17.4731 22.0173 17.0417 22.048C16.6103 22.0787 16.1783 21.9974 15.7875 21.8122C13.3612 20.6372 11.3984 18.6832 10.2125 16.2622C10.0218 15.8734 9.93642 15.4414 9.96494 15.0093C9.99345 14.5771 10.1348 14.1601 10.375 13.7997L12.3 10.8497L10.05 5.5997Z" fill="url(#paint0_linear_301_289)"/>
</g>
<defs>
<filter id="filter0_d_301_289" x="3.5" y="2.54297" width="27.9567" height="27.957" filterUnits="userSpaceOnUse" color-interpolation-filters="sRGB">
<feFlood flood-opacity="0" result="BackgroundImageFix"/>
<feColorMatrix in="SourceAlpha" type="matrix" values="0 0 0 0 0 0 0 0 0 0 0 0 0 0 0 0 0 0 127 0" result="hardAlpha"/>
<feOffset dx="1" dy="1"/>
<feGaussianBlur stdDeviation="0.5"/>
<feComposite in2="hardAlpha" operator="out"/>
<feColorMatrix type="matrix" values="0 0 0 0 0 0 0 0 0 0 0 0 0 0 0 0 0 0 0.25 0"/>
<feBlend mode="normal" in2="BackgroundImageFix" result="effect1_dropShadow_301_289"/>
<feBlend mode="normal" in="SourceGraphic" in2="effect1_dropShadow_301_289" result="shape"/>
</filter>
<linearGradient id="paint0_linear_301_289" x1="4.33243" y1="5.71546" x2="30.3828" y2="7.24251" gradientUnits="userSpaceOnUse">
<stop stop-color="#FFDA55"/>
<stop offset="1" stop-color="#FFAA2C"/>
</linearGradient>
</defs>
</svg>
