<svg width="32" height="32" viewBox="0 0 32 32" fill="none" xmlns="http://www.w3.org/2000/svg">
<g filter="url(#filter0_d_406_84)">
<path d="M22 28.5002C11.8 28.5002 3.5 20.2002 3.5 10.0002C3.50051 8.17596 4.16587 6.41445 5.37153 5.04544C6.57718 3.67642 8.24047 2.79376 10.05 2.56269C10.5876 2.49545 11.1325 2.60558 11.6017 2.87632C12.071 3.14707 12.4391 3.56363 12.65 4.06269L15.1625 9.91269C15.3284 10.292 15.397 10.7068 15.3621 11.1193C15.3272 11.5318 15.1898 11.9291 14.9625 12.2752L13.0375 15.2002C13.8903 16.8118 15.2106 18.1277 16.825 18.9752L19.7125 17.0502C20.0598 16.8208 20.4586 16.6813 20.8732 16.6442C21.2877 16.6072 21.705 16.6736 22.0875 16.8377L27.9375 19.3502C28.4366 19.5611 28.8531 19.9291 29.1239 20.3984C29.3946 20.8677 29.5047 21.4126 29.4375 21.9502C29.2064 23.7597 28.3238 25.423 26.9548 26.6287C25.5857 27.8343 23.8242 28.4997 22 28.5002ZM10.05 5.60019C9.04448 5.81736 8.14372 6.37249 7.49777 7.1731C6.85182 7.97372 6.49968 8.97148 6.5 10.0002C6.50331 14.11 8.1374 18.0506 11.0435 20.9567C13.9496 23.8628 17.8902 25.4969 22 25.5002C23.0287 25.5005 24.0265 25.1484 24.8271 24.5024C25.6277 23.8565 26.1828 22.9557 26.4 21.9502L21.15 19.7002L18.25 21.6377C17.8893 21.8763 17.4731 22.0178 17.0417 22.0485C16.6103 22.0791 16.1783 21.9979 15.7875 21.8127C13.3612 20.6377 11.3984 18.6837 10.2125 16.2627C10.0218 15.8739 9.93642 15.4419 9.96494 15.0097C9.99345 14.5776 10.1348 14.1606 10.375 13.8002L12.3 10.8502L10.05 5.60019Z" fill="url(#paint0_linear_406_84)"/>
</g>
<defs>
<filter id="filter0_d_406_84" x="3.5" y="2.54346" width="27.9567" height="27.9565" filterUnits="userSpaceOnUse" color-interpolation-filters="sRGB">
<feFlood flood-opacity="0" result="BackgroundImageFix"/>
<feColorMatrix in="SourceAlpha" type="matrix" values="0 0 0 0 0 0 0 0 0 0 0 0 0 0 0 0 0 0 127 0" result="hardAlpha"/>
<feOffset dx="1" dy="1"/>
<feGaussianBlur stdDeviation="0.5"/>
<feComposite in2="hardAlpha" operator="out"/>
<feColorMatrix type="matrix" values="0 0 0 0 0 0 0 0 0 0 0 0 0 0 0 0 0 0 0.25 0"/>
<feBlend mode="normal" in2="BackgroundImageFix" result="effect1_dropShadow_406_84"/>
<feBlend mode="normal" in="SourceGraphic" in2="effect1_dropShadow_406_84" result="shape"/>
</filter>
<linearGradient id="paint0_linear_406_84" x1="4.33243" y1="5.71595" x2="30.3828" y2="7.243" gradientUnits="userSpaceOnUse">
<stop stop-color="#FFDA55"/>
<stop offset="1" stop-color="#FFAA2C"/>
</linearGradient>
</defs>
</svg>
