<svg width="21" height="19" viewBox="0 0 21 19" fill="none" xmlns="http://www.w3.org/2000/svg">
<path d="M14.25 16.9221C7.875 16.9221 2.6875 11.9939 2.6875 5.93769C2.68782 4.85455 3.10367 3.80866 3.8572 2.9958C4.61074 2.18295 5.65029 1.65887 6.78125 1.52167C7.11725 1.48175 7.45779 1.54714 7.75109 1.70789C8.0444 1.86865 8.27444 2.11598 8.40625 2.4123L9.97656 5.88574C10.0803 6.11096 10.1231 6.35721 10.1013 6.60216C10.0795 6.84711 9.99363 7.08301 9.85156 7.28847L8.64844 9.02519C9.18143 9.98207 10.0066 10.7634 11.0156 11.2666L12.8203 10.1236C13.0374 9.98744 13.2867 9.90462 13.5457 9.8826C13.8048 9.86057 14.0656 9.90004 14.3047 9.99745L17.9609 11.4893C18.2729 11.6145 18.5332 11.833 18.7024 12.1116C18.8716 12.3903 18.9405 12.7138 18.8984 13.033C18.754 14.1074 18.2024 15.095 17.3467 15.8108C16.4911 16.5267 15.3901 16.9218 14.25 16.9221ZM6.78125 3.32519C6.1528 3.45413 5.58982 3.78374 5.18611 4.25911C4.78239 4.73447 4.5623 5.32689 4.5625 5.93769C4.56457 8.37791 5.58588 10.7176 7.40219 12.4431C9.2185 14.1686 11.6814 15.1388 14.25 15.1408C14.8929 15.141 15.5165 14.9319 16.0169 14.5484C16.5173 14.1649 16.8643 13.63 17 13.033L13.7188 11.6971L11.9062 12.8475C11.6808 12.9891 11.4207 13.0732 11.1511 13.0914C10.8815 13.1096 10.6114 13.0613 10.3672 12.9514C8.85074 12.2537 7.62402 11.0935 6.88281 9.65605C6.76362 9.4252 6.71026 9.16868 6.72809 8.91211C6.74591 8.65554 6.83428 8.40791 6.98438 8.19394L8.1875 6.44238L6.78125 3.32519Z" fill="url(#paint0_linear_401_176)"/>
<defs>
<linearGradient id="paint0_linear_401_176" x1="3.20777" y1="3.39392" x2="19.4832" y2="4.39819" gradientUnits="userSpaceOnUse">
<stop stop-color="#FFDA55"/>
<stop offset="1" stop-color="#FFAA2C"/>
</linearGradient>
</defs>
</svg>
