<svg width="33" height="34" viewBox="0 0 33 34" fill="none" xmlns="http://www.w3.org/2000/svg">
<g filter="url(#filter0_d_205_546)">
<path d="M22.6875 29.8906C12.1688 29.8906 3.60938 21.3312 3.60938 10.8125C3.6099 8.93126 4.29605 7.11471 5.53939 5.70291C6.78272 4.29111 8.49798 3.38086 10.3641 3.14257C10.9185 3.07324 11.4803 3.1868 11.9643 3.46601C12.4483 3.74522 12.8278 4.17479 13.0453 4.68945L15.6363 10.7223C15.8074 11.1134 15.8782 11.5411 15.8421 11.9666C15.8061 12.392 15.6645 12.8017 15.4301 13.1586L13.4449 16.175C14.3244 17.8369 15.6859 19.194 17.3508 20.068L20.3285 18.0828C20.6867 17.8463 21.098 17.7024 21.5255 17.6642C21.953 17.6259 22.3833 17.6945 22.7777 17.8637L28.8105 20.4547C29.3252 20.6722 29.7548 21.0517 30.034 21.5357C30.3132 22.0196 30.4268 22.5815 30.3574 23.1359C30.1191 25.002 29.2089 26.7173 27.7971 27.9606C26.3853 29.2039 24.5687 29.8901 22.6875 29.8906ZM10.3641 6.275C9.32712 6.49895 8.39821 7.07143 7.73207 7.89707C7.06594 8.7227 6.70279 9.75164 6.70313 10.8125C6.70654 15.0508 8.3917 19.1145 11.3886 22.1114C14.3855 25.1083 18.4492 26.7935 22.6875 26.7969C23.7484 26.7972 24.7773 26.4341 25.6029 25.7679C26.4286 25.1018 27.001 24.1729 27.225 23.1359L21.8109 20.8156L18.8203 22.8137C18.4484 23.0598 18.0192 23.2057 17.5743 23.2373C17.1294 23.2689 16.6839 23.1852 16.2809 22.9941C13.7787 21.7824 11.7546 19.7674 10.5316 17.2707C10.335 16.8698 10.2469 16.4242 10.2763 15.9786C10.3057 15.533 10.4516 15.1029 10.6992 14.7312L12.6844 11.6891L10.3641 6.275Z" fill="url(#paint0_linear_205_546)"/>
</g>
<defs>
<filter id="filter0_d_205_546" x="3.60938" y="3.12274" width="28.7679" height="28.7679" filterUnits="userSpaceOnUse" color-interpolation-filters="sRGB">
<feFlood flood-opacity="0" result="BackgroundImageFix"/>
<feColorMatrix in="SourceAlpha" type="matrix" values="0 0 0 0 0 0 0 0 0 0 0 0 0 0 0 0 0 0 127 0" result="hardAlpha"/>
<feOffset dx="1" dy="1"/>
<feGaussianBlur stdDeviation="0.5"/>
<feComposite in2="hardAlpha" operator="out"/>
<feColorMatrix type="matrix" values="0 0 0 0 0 0 0 0 0 0 0 0 0 0 0 0 0 0 0.25 0"/>
<feBlend mode="normal" in2="BackgroundImageFix" result="effect1_dropShadow_205_546"/>
<feBlend mode="normal" in="SourceGraphic" in2="effect1_dropShadow_205_546" result="shape"/>
</filter>
<linearGradient id="paint0_linear_205_546" x1="4.46782" y1="6.39437" x2="31.3323" y2="7.96914" gradientUnits="userSpaceOnUse">
<stop stop-color="#FFDA55"/>
<stop offset="1" stop-color="#FFAA2C"/>
</linearGradient>
</defs>
</svg>
