<svg width="97" height="96" viewBox="0 0 97 96" fill="none" xmlns="http://www.w3.org/2000/svg">
<g clip-path="url(#clip0_208_6)">
<g filter="url(#filter0_d_208_6)">
<path fill-rule="evenodd" clip-rule="evenodd" d="M56.2897 39.3836C57.167 39.7802 58.1423 39.9996 59.1667 39.9996H68.5V25.9996H73.1667V21.3329H65.371C64.4557 18.7459 62.8003 16.4849 60.6105 14.831C58.4208 13.1771 55.7933 12.2032 53.0546 12.0304C50.3159 11.8575 47.5868 12.4933 45.2065 13.8588C42.8262 15.2243 40.8996 17.2592 39.6663 19.7106C38.433 22.162 37.9473 24.9217 38.2696 27.6469C38.5919 30.3721 39.708 32.9424 41.4792 35.0385C43.2503 37.1345 45.5984 38.6639 48.2315 39.4364C50.8647 40.2089 53.6669 40.1905 56.2897 39.3836ZM52.1667 16.6662C48.7133 16.6662 45.6963 18.5422 44.0817 21.3329H60.2517C59.4327 19.9134 58.2542 18.7347 56.8349 17.9155C55.4156 17.0963 53.8055 16.6654 52.1667 16.6662ZM59.1667 35.3329C58.5478 35.3329 57.9543 35.0871 57.5168 34.6495C57.0792 34.2119 56.8333 33.6184 56.8333 32.9996V25.9996H63.8333V35.3329H59.1667Z" fill="url(#paint0_linear_208_6)"/>
<path d="M21.8333 44.6662C19.358 44.6662 16.984 45.6495 15.2337 47.3998C13.4833 49.1502 12.5 51.5242 12.5 53.9995V67.9995C12.5 70.4749 13.4833 72.8488 15.2337 74.5992C16.984 76.3495 19.358 77.3328 21.8333 77.3328H21.9593C22.559 82.8162 25.2727 87.3195 29.3233 90.5162C33.8897 94.1165 40.0613 95.9995 46.7067 95.9995C57.328 95.9995 67.1467 91.7225 70.4413 81.9832C71.3118 82.056 72.1851 81.8833 72.9623 81.4845C73.7394 81.0858 74.3891 80.477 74.8375 79.7275C75.286 78.9779 75.5151 78.1176 75.499 77.2443C75.4829 76.371 75.2221 75.5197 74.7463 74.7872L83.585 69.9758L81.3543 65.8785L70.0237 72.0455L58.3477 67.6658H58.343C57.8988 67.4983 57.5163 67.1992 57.2466 66.8085C56.9769 66.4179 56.8327 65.9542 56.8333 65.4795V58.6662C56.8333 57.4285 56.3417 56.2415 55.4665 55.3663C54.5913 54.4912 53.4043 53.9995 52.1667 53.9995C50.929 53.9995 49.742 54.4912 48.8668 55.3663C47.9917 56.2415 47.5 57.4285 47.5 58.6662V70.3328C47.4999 71.283 47.7898 72.2106 48.331 72.9915C48.8722 73.7725 49.639 74.3697 50.5287 74.7032L66.0127 80.5085C63.593 87.5715 56.299 91.3328 46.7067 91.3328C40.9037 91.3328 35.8077 89.6832 32.2167 86.8505C29.153 84.4355 27.1207 81.1198 26.6213 77.0085C28.5972 76.4691 30.3409 75.295 31.5839 73.6671C32.8269 72.0391 33.5001 70.0477 33.5 67.9995V53.9995C33.5 51.5242 32.5167 49.1502 30.7663 47.3998C29.016 45.6495 26.642 44.6662 24.1667 44.6662H27.6667C28.2855 44.6662 28.879 44.4203 29.3166 43.9828C29.7542 43.5452 30 42.9517 30 42.3328C30 41.714 29.7542 41.1205 29.3166 40.6829C28.879 40.2453 28.2855 39.9995 27.6667 39.9995H18.3333C17.7145 39.9995 17.121 40.2453 16.6834 40.6829C16.2458 41.1205 16 41.714 16 42.3328C16 42.9517 16.2458 43.5452 16.6834 43.9828C17.121 44.4203 17.7145 44.6662 18.3333 44.6662H21.8333ZM96.1453 57.5695L92.188 55.0962L84.124 67.9995H96.5V63.3328H92.5427L96.1453 57.5695Z" fill="url(#paint1_linear_208_6)"/>
<path d="M40.4999 44.6663C39.2622 44.6663 38.0753 45.1579 37.2001 46.0331C36.3249 46.9083 35.8333 48.0952 35.8333 49.3329V71.4996C35.8333 73.8725 36.4913 76.1989 37.7341 78.2203C38.9768 80.2418 40.7557 81.8791 42.873 82.9503C44.9903 84.0216 47.3632 84.4848 49.728 84.2885C52.0928 84.0923 54.3568 83.2442 56.2686 81.8386L48.8906 79.0713C47.1115 78.4044 45.5784 77.2104 44.496 75.649C43.4136 74.0875 42.8335 72.2329 42.8333 70.3329V58.6663C42.8333 56.1909 43.8166 53.8169 45.5669 52.0666C47.3173 50.3163 49.6912 49.3329 52.1666 49.3329C54.6419 49.3329 57.0159 50.3163 58.7662 52.0666C60.5166 53.8169 61.4999 56.1909 61.4999 58.6663V51.6663C61.4999 49.8097 60.7624 48.0293 59.4497 46.7165C58.1369 45.4038 56.3564 44.6663 54.4999 44.6663H40.4999Z" fill="url(#paint2_linear_208_6)"/>
</g>
</g>
<defs>
<filter id="filter0_d_208_6" x="12.5" y="12.0026" width="88" height="87.9969" filterUnits="userSpaceOnUse" color-interpolation-filters="sRGB">
<feFlood flood-opacity="0" result="BackgroundImageFix"/>
<feColorMatrix in="SourceAlpha" type="matrix" values="0 0 0 0 0 0 0 0 0 0 0 0 0 0 0 0 0 0 127 0" result="hardAlpha"/>
<feOffset dx="2" dy="2"/>
<feGaussianBlur stdDeviation="1"/>
<feComposite in2="hardAlpha" operator="out"/>
<feColorMatrix type="matrix" values="0 0 0 0 0 0 0 0 0 0 0 0 0 0 0 0 0 0 0.25 0"/>
<feBlend mode="normal" in2="BackgroundImageFix" result="effect1_dropShadow_208_6"/>
<feBlend mode="normal" in="SourceGraphic" in2="effect1_dropShadow_208_6" result="shape"/>
</filter>
<linearGradient id="paint0_linear_208_6" x1="55.6697" y1="12.0026" x2="55.6697" y2="40.0026" gradientUnits="userSpaceOnUse">
<stop stop-color="#065A97"/>
<stop offset="1" stop-color="#012F50"/>
</linearGradient>
<linearGradient id="paint1_linear_208_6" x1="54.5" y1="39.9995" x2="54.5" y2="95.9995" gradientUnits="userSpaceOnUse">
<stop stop-color="#065A97"/>
<stop offset="1" stop-color="#012F50"/>
</linearGradient>
<linearGradient id="paint2_linear_208_6" x1="48.6666" y1="44.6663" x2="48.6666" y2="84.3325" gradientUnits="userSpaceOnUse">
<stop stop-color="#065A97"/>
<stop offset="1" stop-color="#012F50"/>
</linearGradient>
<clipPath id="clip0_208_6">
<rect width="96" height="96" fill="white" transform="translate(0.5)"/>
</clipPath>
</defs>
</svg>
